<?xml version="1.0" encoding="UTF-8" standalone="no"?>
<!DOCTYPE svg PUBLIC "-//W3C//DTD SVG 1.1//EN" "http://www.w3.org/Graphics/SVG/1.1/DTD/svg11.dtd">
<svg width="100%" height="100%" viewBox="0 0 4000 4000" version="1.1" xmlns="http://www.w3.org/2000/svg" xmlns:xlink="http://www.w3.org/1999/xlink" xml:space="preserve" xmlns:serif="http://www.serif.com/" style="fill-rule:evenodd;clip-rule:evenodd;stroke-linejoin:round;stroke-miterlimit:2;">
    <g transform="matrix(1,0,0,1,0,124.56)">
        <path d="M1610.77,1365.86L1295.42,1365.86L1524.94,1605.38C1578.28,1661.05 1650.11,1692.26 1727.2,1693.27C1796.05,1694.15 1854.48,1675.99 1906.76,1632.06L1610.77,1365.86ZM1934.32,2105.75C1823.52,2009.26 1674.54,2029.4 1568.05,2133.57L1301.84,2393.92L1629.11,2393.92L1934.32,2105.75ZM1486,2049.67C1640.84,1898.23 1890.09,1897.55 2045.85,2046.58L2045.93,2046.51L2392.99,2393.57L2702.67,2393.57L2166.2,1857.1L2666.34,1356.96L2351.44,1356.96L2004.13,1704.26L2003.86,1704.03C1929.2,1773.01 1833.07,1810.65 1731.09,1810.65C1729.28,1810.65 1727.47,1810.64 1725.66,1810.61C1616.86,1809.19 1515.49,1765.14 1440.21,1686.58L1020.44,1248.51L1654.31,1248.51L1990.82,1549.58L2302.82,1239.61L2949.64,1239.61L2332.16,1857.1L2985.98,2510.92L2344.38,2510.92L2018.16,2188.63L1671.6,2511.27L1014.02,2511.27L1486,2049.67Z" style="fill:rgb(35,31,32);fill-rule:nonzero;"/>
    </g>
</svg>
